<svg xmlns="http://www.w3.org/2000/svg">

  <symbol id="menu" viewBox="0 0 24 24">
    <title>Menu</title>
    <path d="M0 0h24v24H0z" fill="none"/>
    <path d="M3 18h18v-2H3v2zm0-5h18v-2H3v2zm0-7v2h18V6H3z"/>
  </symbol>

  <symbol id="search" viewBox="0 0 24 24">
    <title>Search</title>
    <path d="M15.5 14h-.79l-.28-.27C15.41 12.59 16 11.11 16 9.5 16 5.91 13.09 3 9.5 3S3 5.91 3 9.5 5.91 16 9.5 16c1.61 0 3.09-.59 4.23-1.57l.27.28v.79l5 4.99L20.49 19l-4.99-5zm-6 0C7.01 14 5 11.99 5 9.5S7.01 5 9.5 5 14 7.01 14 9.5 11.99 14 9.5 14z"/>
    <path d="M0 0h24v24H0z" fill="none"/>
  </symbol>

  <symbol id="location" viewBox="0 0 24 24">
    <title>Location</title>
    <path d="M12 2C8.13 2 5 5.13 5 9c0 5.25 7 13 7 13s7-7.75 7-13c0-3.87-3.13-7-7-7zm0 9.5c-1.38 0-2.5-1.12-2.5-2.5s1.12-2.5 2.5-2.5 2.5 1.12 2.5 2.5-1.12 2.5-2.5 2.5z"/>
    <path d="M0 0h24v24H0z" fill="none"/>
  </symbol>

  <symbol id="info" viewBox="0 0 24 24">
    <title>Information</title>
    <path d="M0 0h24v24H0z" fill="none"/>
    <path d="M11 17h2v-6h-2v6zm1-15C6.48 2 2 6.48 2 12s4.48 10 10 10 10-4.48 10-10S17.52 2 12 2zm0 18c-4.41 0-8-3.59-8-8s3.59-8 8-8 8 3.59 8 8-3.59 8-8 8zM11 9h2V7h-2v2z"/>
  </symbol>

  <symbol id="gps" viewBox="0 0 24 24">
    <title>GPS</title>
    <path d="M0 0h24v24H0z" fill="none"/>
    <path d="M12 8c-2.21 0-4 1.79-4 4s1.79 4 4 4 4-1.79 4-4-1.79-4-4-4zm8.94 3c-.46-4.17-3.77-7.48-7.94-7.94V1h-2v2.06C6.83 3.52 3.52 6.83 3.06 11H1v2h2.06c.46 4.17 3.77 7.48 7.94 7.94V23h2v-2.06c4.17-.46 7.48-3.77 7.94-7.94H23v-2h-2.06zM12 19c-3.87 0-7-3.13-7-7s3.13-7 7-7 7 3.13 7 7-3.13 7-7 7z"/>
  </symbol>

  <symbol id="close" viewBox="0 0 24 24">
    <title>Close</title>
    <path d="M19 6.41L17.59 5 12 10.59 6.41 5 5 6.41 10.59 12 5 17.59 6.41 19 12 13.41 17.59 19 19 17.59 13.41 12z"/>
    <path d="M0 0h24v24H0z" fill="none"/>
  </symbol>

  <symbol id="arrow-back" viewBox="0 0 24 24">
    <title>Back</title>
    <path d="M0 0h24v24H0z" fill="none"/>
    <path d="M20 11H7.83l5.59-5.59L12 4l-8 8 8 8 1.41-1.41L7.83 13H20v-2z"/>
  </symbol>

  <symbol id="time" viewBox="0 0 24 24">
    <title>Time</title>
    <path d="M11.99 2C6.47 2 2 6.48 2 12s4.47 10 9.99 10C17.52 22 22 17.52 22 12S17.52 2 11.99 2zM12 20c-4.42 0-8-3.58-8-8s3.58-8 8-8 8 3.58 8 8-3.58 8-8 8z" fill-opacity=".9"/>
    <path d="M0 0h24v24H0z" fill="none"/>
    <path d="M12.5 7H11v6l5.25 3.15.75-1.23-4.5-2.67z" fill-opacity=".9"/>
  </symbol>

  <symbol id="google-plus" viewBox="0 0 24 24">
    <title>Google+</title>
    <path d="M20,2A2,2 0 0,1 22,4V20A2,2 0 0,1 20,22H4A2,2 0 0,1 2,20V4C2,2.89 2.9,2 4,2H20M20,12H18V10H17V12H15V13H17V15H18V13H20V12M9,11.29V13H11.86C11.71,13.71 11,15.14 9,15.14C7.29,15.14 5.93,13.71 5.93,12C5.93,10.29 7.29,8.86 9,8.86C10,8.86 10.64,9.29 11,9.64L12.36,8.36C11.5,7.5 10.36,7 9,7C6.21,7 4,9.21 4,12C4,14.79 6.21,17 9,17C11.86,17 13.79,15 13.79,12.14C13.79,11.79 13.79,11.57 13.71,11.29H9Z" />
  </symbol>

  <symbol id="twitter" viewBox="0 0 24 24">
    <title>Twitter</title>
    <path d="M17.71,9.33C17.64,13.95 14.69,17.11 10.28,17.31C8.46,17.39 7.15,16.81 6,16.08C7.34,16.29 9,15.76 9.9,15C8.58,14.86 7.81,14.19 7.44,13.12C7.82,13.18 8.22,13.16 8.58,13.09C7.39,12.69 6.54,11.95 6.5,10.41C6.83,10.57 7.18,10.71 7.64,10.74C6.75,10.23 6.1,8.38 6.85,7.16C8.17,8.61 9.76,9.79 12.37,9.95C11.71,7.15 15.42,5.63 16.97,7.5C17.63,7.38 18.16,7.14 18.68,6.86C18.47,7.5 18.06,7.97 17.56,8.33C18.1,8.26 18.59,8.13 19,7.92C18.75,8.45 18.19,8.93 17.71,9.33M20,2H4A2,2 0 0,0 2,4V20A2,2 0 0,0 4,22H20A2,2 0 0,0 22,20V4C22,2.89 21.1,2 20,2Z" />
  </symbol>

</svg>
